<svg width="80" height="80" viewBox="0 0 80 80" fill="none" xmlns="http://www.w3.org/2000/svg">
<path fillRule="evenodd" clipRule="evenodd" d="M23.531 10.711C27.828 6.41402 33.6559 4 39.7327 4C45.8096 4 51.6375 6.41402 55.9345 10.711C60.2315 15.008 62.6455 20.8359 62.6455 26.9128C62.6455 37.8869 64.9926 44.7017 67.1557 48.6673C68.2417 50.6584 69.2992 51.9646 70.0338 52.74C70.402 53.1286 70.6913 53.3863 70.8655 53.5314C70.9526 53.6041 71.0111 53.6486 71.0363 53.6674C71.0402 53.6703 71.0433 53.6726 71.0456 53.6743C72.219 54.4803 72.7383 55.9548 72.3248 57.3206C71.9068 58.7011 70.6344 59.6453 69.192 59.6453H10.2735C8.83109 59.6453 7.55869 58.7011 7.1407 57.3206C6.72715 55.9547 7.24641 54.4803 8.41982 53.6743C8.42211 53.6726 8.42524 53.6703 8.42918 53.6674C8.45438 53.6486 8.51282 53.6041 8.59996 53.5314C8.77415 53.3863 9.06345 53.1286 9.43161 52.74C10.1662 51.9646 11.2238 50.6584 12.3098 48.6673C14.4729 44.7017 16.82 37.8869 16.82 26.9128C16.82 20.8359 19.234 15.008 23.531 10.711ZM8.45365 53.6514C8.45363 53.6514 8.45361 53.6514 8.45359 53.6514ZM17.3088 53.0988H62.1567C61.9076 52.6907 61.6576 52.2588 61.4085 51.8021C58.6617 46.7663 56.099 38.8515 56.099 26.9128C56.099 22.5722 54.3747 18.4093 51.3054 15.3401C48.2361 12.2708 44.0733 10.5465 39.7327 10.5465C35.3921 10.5465 31.2293 12.2708 28.1601 15.3401C25.0908 18.4093 23.3665 22.5722 23.3665 26.9128C23.3665 38.8515 20.8038 46.7663 18.0569 51.8021C17.8079 52.2588 17.5578 52.6907 17.3088 53.0988ZM32.4276 66.6337C33.9913 65.7266 35.9943 66.2589 36.9014 67.8227C37.1891 68.3187 37.6021 68.7304 38.099 69.0166C38.5959 69.3028 39.1593 69.4535 39.7327 69.4535C40.3062 69.4535 40.8696 69.3028 41.3665 69.0166C41.8634 68.7304 42.2764 68.3187 42.5641 67.8227C43.4712 66.2589 45.4742 65.7266 47.0379 66.6337C48.6016 67.5408 49.1339 69.5438 48.2268 71.1075C47.3636 72.5956 46.1246 73.8308 44.6339 74.6894C43.1432 75.5481 41.453 76 39.7327 76C38.0124 76 36.3223 75.5481 34.8316 74.6894C33.3408 73.8308 32.1019 72.5956 31.2387 71.1075C30.3316 69.5438 30.8639 67.5408 32.4276 66.6337Z" fill="#ABABAB"/>
</svg>
