<svg width="80" height="80" viewBox="0 0 80 80" fill="none" xmlns="http://www.w3.org/2000/svg">
<path fillRule="evenodd" clipRule="evenodd" d="M61.9505 18.9586C63.2286 20.2366 63.2286 22.3088 61.9505 23.5869L25.9505 59.5869C24.6725 60.865 22.6003 60.865 21.3222 59.5869L4.95856 43.2233C3.68048 41.9452 3.68048 39.873 4.95856 38.5949C6.23664 37.3168 8.30882 37.3168 9.5869 38.5949L23.6364 52.6444L57.3222 18.9586C58.6003 17.6805 60.6724 17.6805 61.9505 18.9586ZM75.0414 32.0495C76.3195 33.3276 76.3195 35.3997 75.0414 36.6778L50.496 61.2233C49.2179 62.5013 47.1457 62.5013 45.8677 61.2233L40.9586 56.3142C39.6805 55.0361 39.6805 52.9639 40.9586 51.6858C42.2366 50.4078 44.3088 50.4078 45.5869 51.6858L48.1818 54.2808L70.4131 32.0495C71.6912 30.7714 73.7634 30.7714 75.0414 32.0495Z" fill="black"/>
</svg>
