<svg width="80" height="80" viewBox="0 0 80 80" fill="none" xmlns="http://www.w3.org/2000/svg">
<path d="M73.4582 73.1705C73.0848 73.1705 72.8116 73.125 72.6295 73.0339L59.2336 68.681C58.3138 68.3622 57.4578 68.426 56.6746 68.8904C53.4509 70.5478 50.045 71.6953 46.4569 72.3418C42.8689 72.9884 39.2262 73.125 35.5471 72.7607C30.1196 72.2052 25.0745 70.5296 20.4209 67.7156C15.9131 65.0019 12.2249 61.5049 9.37455 57.2157C6.47863 52.8445 4.75747 48.1272 4.20196 43.0639C3.64645 38.0006 4.23839 33.1103 5.95955 28.3931C7.68982 23.6758 10.4127 19.5414 14.1464 15.9989C17.8711 12.4564 22.215 9.81545 27.1599 8.09429C32.1139 6.36403 37.2501 5.70835 42.5957 6.11815C47.9322 6.52795 52.9318 8.03055 57.5762 10.6077C62.1295 13.0939 65.9088 16.3814 68.9049 20.4794C72.0376 24.6229 74.0137 29.1762 74.8424 34.1485C75.3979 37.5088 75.4253 40.8601 74.9426 44.1931C74.4599 47.5353 73.4309 50.7226 71.8736 53.7551C71.4547 54.5383 71.391 55.2486 71.6642 55.8952L75.9443 70.1927C76.0354 70.648 76.0172 71.0942 75.8715 71.504C75.7349 71.9138 75.4981 72.2599 75.1794 72.5422C74.7149 72.9611 74.1412 73.1614 73.4491 73.1614L73.4582 73.1705Z" fill="#738BB1"/>
</svg>
