<svg width="80" height="80" viewBox="0 0 80 80" fill="none" xmlns="http://www.w3.org/2000/svg">
<path d="M67.8799 38.9479C67.8799 40.1901 66.8078 41.2401 65.536 41.2401H35.582C34.8425 41.2401 34.0366 41.6394 33.6373 42.2901C32.432 44.1978 30.3542 45.4474 27.9437 45.4474C25.5332 45.4474 23.3815 44.1978 22.2428 42.2901C21.8435 41.6394 21.1041 41.2401 20.2981 41.2401H15.344C14.0722 41.2401 13 40.1901 13 38.9479C13 37.7056 14.0722 36.6483 15.344 36.6483H20.2981C21.0375 36.6483 21.8435 36.2564 22.2428 35.5983C23.448 33.6906 25.5258 32.4483 27.9437 32.4483C30.3616 32.4483 32.432 33.6906 33.6373 35.5983C34.0366 36.2564 34.776 36.6483 35.582 36.6483H65.536C66.8078 36.6483 67.8799 37.6982 67.8799 38.9479ZM67.8799 54.8307C67.8799 56.0803 66.8078 57.1303 65.536 57.1303H61.1808C60.4414 57.1303 59.6354 57.5222 59.2361 58.1803C58.0308 60.088 55.9531 61.3302 53.5351 61.3302C51.1172 61.3302 48.9803 60.088 47.8416 58.1803C47.4423 57.5222 46.7029 57.1303 45.8969 57.1303H15.344C14.0722 57.1303 13 56.0803 13 54.8307C13 53.5811 14.0722 52.5385 15.344 52.5385H45.8969C46.6363 52.5385 47.4423 52.1392 47.8416 51.4811C49.0468 49.5808 51.1246 48.3312 53.5351 48.3312C55.9457 48.3312 58.0308 49.5808 59.2361 51.4811C59.6354 52.1392 60.3748 52.5385 61.1808 52.5385H65.536C66.8078 52.5385 67.8799 53.5885 67.8799 54.8307ZM67.8799 24.4995C67.8799 25.7492 66.8078 26.7991 65.5286 26.7991H61.1734C60.3674 26.7991 59.628 27.191 59.2213 27.8491C58.0826 29.7568 55.9383 30.9991 53.5204 30.9991C51.1024 30.9991 49.0247 29.7568 47.8194 27.8491C47.4127 27.191 46.6141 26.7991 45.8747 26.7991H15.344C14.0722 26.7991 13 25.7492 13 24.4995C13 23.2499 14.0722 22.2073 15.344 22.2073H45.9413C46.7472 22.2073 47.4793 21.808 47.886 21.1573C49.0247 19.2496 51.1764 18 53.5869 18C55.9974 18 58.0826 19.2496 59.2878 21.1573C59.6945 21.808 60.5005 22.2073 61.2399 22.2073H65.5286C66.8078 22.2073 67.8799 23.2573 67.8799 24.4995Z" fill="black"/>
</svg>
