<svg width="80" height="80" viewBox="0 0 80 80" fill="none" xmlns="http://www.w3.org/2000/svg">
<path fillRule="evenodd" clipRule="evenodd" d="M16.9466 8.60017C19.4906 7.54379 22.2182 7 24.9729 7C27.7276 7 30.4552 7.54379 32.9993 8.60017C35.5434 9.65656 37.8539 11.2048 39.7984 13.156L39.8092 13.1669L40 13.3603L40.1908 13.167L40.2017 13.156C42.1462 11.2048 44.4567 9.65656 47.0008 8.60017C49.5448 7.54379 52.2724 7 55.0271 7C57.7818 7 60.5094 7.54379 63.0535 8.60017C65.5967 9.6562 67.9065 11.2037 69.8505 13.154C78.1736 21.4793 78.3586 35.2446 68.4964 45.2917L68.4751 45.3133L42.3125 71.4759C41.6992 72.0892 40.8674 72.4338 40 72.4338C39.1327 72.4338 38.3009 72.0892 37.6876 71.4759L11.5036 45.2918C1.6413 35.2447 1.82647 21.4793 10.1495 13.154C12.0936 11.2037 14.4034 9.6562 16.9466 8.60017Z" fill="#D22B36"/>
</svg>
