<svg width="80" height="80" viewBox="0 0 80 80" fill="none" xmlns="http://www.w3.org/2000/svg">
<path fillRule="evenodd" clipRule="evenodd" d="M4 7.6C4 5.61177 5.61177 4 7.6 4H32.8C34.7882 4 36.4 5.61177 36.4 7.6V32.8C36.4 34.7882 34.7882 36.4 32.8 36.4H7.6C5.61177 36.4 4 34.7882 4 32.8V7.6ZM11.2 11.2V29.2H29.2V11.2H11.2ZM43.6 11.2C43.6 9.21177 45.2118 7.6 47.2 7.6H72.4C74.3882 7.6 76 9.21177 76 11.2C76 13.1882 74.3882 14.8 72.4 14.8H47.2C45.2118 14.8 43.6 13.1882 43.6 11.2ZM43.6 29.2C43.6 27.2118 45.2118 25.6 47.2 25.6H72.4C74.3882 25.6 76 27.2118 76 29.2C76 31.1882 74.3882 32.8 72.4 32.8H47.2C45.2118 32.8 43.6 31.1882 43.6 29.2ZM4 47.2C4 45.2118 5.61177 43.6 7.6 43.6H32.8C34.7882 43.6 36.4 45.2118 36.4 47.2V72.4C36.4 74.3882 34.7882 76 32.8 76H7.6C5.61177 76 4 74.3882 4 72.4V47.2ZM11.2 50.8V68.8H29.2V50.8H11.2ZM43.6 50.8C43.6 48.8118 45.2118 47.2 47.2 47.2H72.4C74.3882 47.2 76 48.8118 76 50.8C76 52.7882 74.3882 54.4 72.4 54.4H47.2C45.2118 54.4 43.6 52.7882 43.6 50.8ZM43.6 68.8C43.6 66.8118 45.2118 65.2 47.2 65.2H72.4C74.3882 65.2 76 66.8118 76 68.8C76 70.7882 74.3882 72.4 72.4 72.4H47.2C45.2118 72.4 43.6 70.7882 43.6 68.8Z" fill="black"/>
</svg>
