<svg width="80" height="80" viewBox="0 0 80 80" fill="none" xmlns="http://www.w3.org/2000/svg">
<path fillRule="evenodd" clipRule="evenodd" d="M24.6185 7.45149C31.9646 3.97992 40.269 3.0955 48.1815 4.94204C56.094 6.78858 63.1491 11.2575 68.1998 17.6221C73.2504 23.9867 75.9995 31.8727 76 39.9977V43.2707C76 46.7426 74.6208 50.0723 72.1658 52.5273C69.7107 54.9824 66.381 56.3616 62.9091 56.3616C59.4372 56.3616 56.1075 54.9824 53.6524 52.5273C53.1328 52.0077 52.6613 51.4488 52.2409 50.8577C49.2433 54.2341 44.8701 56.3616 40 56.3616C30.9626 56.3616 23.6364 49.0353 23.6364 39.998C23.6364 30.9606 30.9626 23.6343 40 23.6343C43.6838 23.6343 47.0833 24.8516 49.8182 26.9059C49.8188 25.0989 51.2838 23.6343 53.0909 23.6343C54.8984 23.6343 56.3636 25.0996 56.3636 26.9071V43.2707C56.3636 45.0066 57.0533 46.6715 58.2808 47.899C59.5083 49.1265 61.1731 49.8161 62.9091 49.8161C64.6451 49.8161 66.3099 49.1265 67.5374 47.899C68.7649 46.6715 69.4546 45.0066 69.4546 43.2707V39.9982C69.4546 39.9981 69.4546 39.9982 69.4546 39.9982C69.4541 33.3504 67.2048 26.8981 63.0726 21.6908C58.9402 16.4834 53.1678 12.827 46.694 11.3162C40.2201 9.80541 33.4256 10.529 27.4151 13.3694C21.4047 16.2098 16.5318 20.9999 13.5889 26.9608C10.646 32.9217 9.80608 39.7028 11.2058 46.2016C12.6054 52.7004 16.1624 58.5346 21.2982 62.7555C26.4341 66.9765 32.8468 69.3359 39.4936 69.4502C46.1404 69.5645 52.6304 67.4269 57.9084 63.3851C59.3434 62.2861 61.3976 62.5586 62.4965 63.9936C63.5955 65.4286 63.323 67.4828 61.888 68.5817C55.4372 73.5218 47.505 76.1344 39.3811 75.9947C31.2572 75.855 23.4194 72.9712 17.1423 67.8123C10.8651 62.6534 6.51776 55.5227 4.80704 47.5798C3.09631 39.6368 4.12286 31.3487 7.71976 24.0632C11.3167 16.7776 17.2724 10.9231 24.6185 7.45149ZM49.8182 39.998C49.8182 34.5755 45.4224 30.1798 40 30.1798C34.5776 30.1798 30.1818 34.5755 30.1818 39.998C30.1818 45.4204 34.5776 49.8161 40 49.8161C45.4224 49.8161 49.8182 45.4204 49.8182 39.998Z" fill="#E28843"/>
</svg>
