<svg width="80" height="80" viewBox="0 0 80 80" fill="none" xmlns="http://www.w3.org/2000/svg">
<path d="M51.8478 28.8212C51.8478 35.3807 46.5202 40.7083 39.9299 40.7083C33.3397 40.7083 28.0428 35.3807 28.0428 28.8212C28.0428 22.2618 33.3704 16.9341 39.9299 16.9341C46.5202 16.9341 51.8478 22.2618 51.8478 28.8212ZM54.1267 43.8802L61.8872 42.4021L60.0087 35.4423L65.8906 30.7921L60.6862 25.2181L63.5194 17.6424L55.6049 15.4867L54.1267 7.4799L46.2122 10.4979L40.4534 4L35.095 10.0359L26.9958 6.83319L25.2404 14.8092L17.2027 16.9649L19.7588 23.8323L14 29.4063L19.7588 34.3644L17.7571 41.509L25.2404 43.2951L25.9487 46.1899L16.9564 71.5039L26.8418 68.9478L34.3251 76L39.9299 55.7057L46.089 76L52.7717 69.5637L63.7349 70.0257L53.5724 46.0975L54.1267 43.8494V43.8802ZM25.1172 28.8212C25.1172 20.6296 31.7691 13.9778 39.9607 13.9778C48.1523 13.9778 54.8042 20.6296 54.8042 28.8212C54.8042 37.0128 48.1523 43.6647 39.9607 43.6647C31.7999 43.6647 25.148 37.0128 25.148 28.8212H25.1172Z" fill="#D9BC94"/>
</svg>
