<svg width="80" height="80" viewBox="0 0 80 80" fill="none" xmlns="http://www.w3.org/2000/svg">
<path fillRule="evenodd" clipRule="evenodd" d="M30.1818 13.5452C24.7594 13.5452 20.3636 17.941 20.3636 23.3634C20.3636 28.7858 24.7594 33.1816 30.1818 33.1816C35.6042 33.1816 40 28.7858 40 23.3634C40 17.941 35.6043 13.5452 30.1818 13.5452ZM13.8182 23.3634C13.8182 14.326 21.1444 6.99978 30.1818 6.99978C39.2192 6.99978 46.5455 14.326 46.5455 23.3634C46.5455 32.4008 39.2192 39.7271 30.1818 39.7271C21.1444 39.7271 13.8182 32.4008 13.8182 23.3634ZM62.9091 23.3634C64.7166 23.3634 66.1818 24.8287 66.1818 26.6361V33.1816H72.7273C74.5347 33.1816 76 34.6468 76 36.4543C76 38.2618 74.5347 39.7271 72.7273 39.7271H66.1818V46.2725C66.1818 48.08 64.7166 49.5452 62.9091 49.5452C61.1016 49.5452 59.6364 48.08 59.6364 46.2725V39.7271H53.0909C51.2834 39.7271 49.8182 38.2618 49.8182 36.4543C49.8182 34.6468 51.2834 33.1816 53.0909 33.1816H59.6364V26.6361C59.6364 24.8287 61.1016 23.3634 62.9091 23.3634ZM8.7928 51.0653C11.8616 47.9965 16.0237 46.2725 20.3636 46.2725H40C44.3399 46.2725 48.5021 47.9965 51.5708 51.0653C54.6396 54.1341 56.3636 58.2962 56.3636 62.6361V69.1816C56.3636 70.9891 54.8984 72.4543 53.0909 72.4543C51.2834 72.4543 49.8182 70.9891 49.8182 69.1816V62.6361C49.8182 60.0322 48.7838 57.5349 46.9425 55.6936C45.1012 53.8524 42.6039 52.818 40 52.818H20.3636C17.7597 52.818 15.2624 53.8524 13.4211 55.6936C11.5799 57.5349 10.5455 60.0322 10.5455 62.6361V69.1816C10.5455 70.9891 9.0802 72.4543 7.27273 72.4543C5.46525 72.4543 4 70.9891 4 69.1816V62.6361C4 58.2962 5.72402 54.1341 8.7928 51.0653Z" fill="#E22C4F"/>
</svg>
